<?xml version="1.0" standalone="no"?>
<!DOCTYPE svg PUBLIC "-//W3C//DTD SVG 20010904//EN"
 "http://www.w3.org/TR/2001/REC-SVG-20010904/DTD/svg10.dtd">
<svg version="1.0" xmlns="http://www.w3.org/2000/svg"
 width="144.000000pt" height="144.000000pt" viewBox="0 0 144.000000 144.000000"
 preserveAspectRatio="xMidYMid meet">
<metadata>
Created by potrace 1.14, written by Peter Selinger 2001-2017
</metadata>
<g transform="translate(0.000000,144.000000) scale(0.100000,-0.100000)"
fill="#000000" stroke="none">
<path d="M204 1280 c-55 -22 -54 -12 -54 -565 1 -385 4 -514 13 -526 21 -28
54 -39 117 -39 46 0 59 -3 54 -12 -6 -10 -5 -10 7 -1 20 16 121 15 113 0 -4
-8 -2 -7 7 0 18 18 123 18 113 1 -6 -10 -5 -10 7 -1 20 16 121 15 113 0 -4 -8
-2 -7 7 0 18 18 123 18 113 1 -6 -10 -5 -10 7 -1 20 16 121 15 113 0 -4 -8 -2
-7 7 1 7 6 37 12 67 12 40 0 51 -3 46 -12 -6 -10 -5 -10 7 -1 20 16 122 15
112 0 -5 -9 -3 -9 8 -1 8 7 28 15 45 18 18 4 37 17 44 31 7 13 16 23 19 21 3
-2 4 230 1 516 l-5 520 -28 24 -28 24 -502 -1 c-276 0 -512 -4 -523 -9z"/>
<path d="M275 120 c3 -5 8 -10 11 -10 2 0 4 5 4 10 0 6 -5 10 -11 10 -5 0 -7
-4 -4 -10z"/>
<path d="M516 118 c3 -5 10 -6 15 -3 13 9 11 12 -6 12 -8 0 -12 -4 -9 -9z"/>
<path d="M756 118 c3 -5 10 -6 15 -3 13 9 11 12 -6 12 -8 0 -12 -4 -9 -9z"/>
<path d="M996 118 c3 -5 10 -6 15 -3 13 9 11 12 -6 12 -8 0 -12 -4 -9 -9z"/>
</g>
</svg>
